<?xml version="1.0" encoding="UTF-8"?>
<svg width="40px" height="38px" viewBox="0 0 40 38" version="1.1" xmlns="http://www.w3.org/2000/svg" xmlns:xlink="http://www.w3.org/1999/xlink">
    <!-- Generator: Sketch 51.2 (57519) - http://www.bohemiancoding.com/sketch -->
    <title>Solids/calendar-add-2</title>
    <desc>Created with Sketch.</desc>
    <defs>
        <path d="M18.2125,32.707125 C18.57375,33.749625 19.055,34.729625 19.6575,35.622125 L4.32125,35.622125 C1.91,35.622125 0,33.713375 0,31.300875 L0,5.572125 C0,3.159625 1.91,1.249625 4.32125,1.249625 L35.67875,1.249625 C38.09,1.249625 40,3.159625 40,5.572125 L40,21.063375 C37.72,18.043375 34.08625,16.083375 29.92625,16.083375 C27.21125,16.083375 24.7075,16.962125 22.66375,18.435875 L15.17625,18.435875 L15.17625,24.164625 L18.295,24.164625 C17.96125,25.059625 17.72375,25.999625 17.60375,26.978375 L15.17625,26.978375 L15.17625,32.707125 L18.2125,32.707125 Z M2.81375,24.164625 L12.26125,24.164625 L12.26125,18.435875 L2.81375,18.435875 L2.81375,24.164625 Z M27.73875,15.622125 L37.18625,15.622125 L37.18625,9.692125 L27.73875,9.692125 L27.73875,15.622125 Z M12.26125,32.707125 L12.26125,26.978375 L2.81375,26.978375 L2.81375,31.300875 C2.81375,32.103375 3.5175,32.707125 4.32125,32.707125 L12.26125,32.707125 Z M15.17625,15.622125 L24.825,15.622125 L24.825,9.692125 L15.17625,9.692125 L15.17625,15.622125 Z M2.81375,15.622125 L12.26125,15.622125 L12.26125,9.692125 L2.81375,9.692125 L2.81375,15.622125 Z M20,28.524625 C20,23.027125 24.445,18.583375 29.9425,18.583375 C35.55625,18.583375 40,23.027125 40,28.524625 C40,34.139625 35.55625,38.583375 29.9425,38.583375 C24.445,38.583375 20,34.139625 20,28.524625 Z M23.97625,27.589625 L23.97625,29.577125 L29.00625,29.577125 L29.00625,34.605875 L30.99375,34.605875 L30.99375,29.577125 L36.02375,29.577125 L36.02375,27.589625 L30.99375,27.589625 L30.99375,22.560875 L29.00625,22.560875 L29.00625,27.589625 L23.97625,27.589625 Z" id="path-1"></path>
    </defs>
    <g id="Page-1" stroke="none" stroke-width="1" fill="none" fill-rule="evenodd">
        <g id="Solids/calendar-add-2" transform="translate(0.000000, -1.000000)">
            <mask id="mask-2" fill="white">
                <use xlink:href="#path-1"></use>
            </mask>
            <use id="path-1" fill="#000000" fill-rule="nonzero" xlink:href="#path-1"></use>
            <g id="Color/White" mask="url(#mask-2)" fill="#FFFFFF" fill-rule="evenodd">
                <rect id="Rectangle-2" x="0" y="0" width="40" height="40"></rect>
            </g>
        </g>
    </g>
</svg>