<?xml version="1.0" encoding="UTF-8"?>
<svg width="40px" height="40px" viewBox="0 0 40 40" version="1.1" xmlns="http://www.w3.org/2000/svg" xmlns:xlink="http://www.w3.org/1999/xlink">
    <!-- Generator: Sketch 51.2 (57519) - http://www.bohemiancoding.com/sketch -->
    <title>Solids/call</title>
    <desc>Created with Sketch.</desc>
    <defs>
        <path d="M7.76315789,39.2105263 L15.5263158,31.4473684 C16.0526316,30.9210526 16.3157895,30.2631579 16.3157895,29.6052632 C16.3157895,28.9473684 16.0526316,28.2894737 15.5263158,27.8947368 L15.5263158,27.7631579 C15.1315789,27.3684211 14.6052632,26.9736842 14.0789474,26.7105263 L2.89473684,37.8947368 C3.42105263,38.4210526 3.81578947,38.9473684 4.21052632,39.3421053 C5.26315789,40.2631579 6.71052632,40.1315789 7.76315789,39.2105263 Z M10.7894737,24.4736842 C11.1842105,20.6578947 15.3947368,16.4473684 15.9210526,15.9210526 L16.0526316,15.7894737 C17.6315789,14.2105263 21.3157895,11.1842105 24.4736842,10.7894737 C24.7368421,11.1842105 25,11.7105263 25.3947368,12.2368421 L35.9210526,1.57894737 C32.8947368,4.75314232e-16 28.2894737,-1.05263158 21.9736842,1.84210526 C13.0263158,5.78947368 5.78947368,12.8947368 1.84210526,21.9736842 C0.526315789,24.8684211 0,27.3684211 0,29.6052632 C0,32.2368421 0.789473684,34.3421053 1.71052632,35.9210526 L12.2368421,25.2631579 C11.7105263,25 11.1842105,24.7368421 10.7894737,24.4736842 Z M27.7631579,15.5263158 C28.6842105,16.5789474 30.3947368,16.5789474 31.3157895,15.5263158 L39.2105263,7.63157895 C40.1315789,6.71052632 40.2631579,5.13157895 39.3421053,4.21052632 C38.9473684,3.81578947 38.4210526,3.28947368 37.8947368,2.89473684 L26.7105263,14.0789474 C26.9736842,14.6052632 27.3684211,15 27.7631579,15.5263158 Z" id="path-1"></path>
    </defs>
    <g id="Page-1" stroke="none" stroke-width="1" fill="none" fill-rule="evenodd">
        <g id="Solids/call">
            <mask id="mask-2" fill="white">
                <use xlink:href="#path-1"></use>
            </mask>
            <use id="Mask" fill="#000000" fill-rule="nonzero" xlink:href="#path-1"></use>
            <g id="Color/White" mask="url(#mask-2)" fill="#FFFFFF" fill-rule="evenodd">
                <rect id="Rectangle-2" x="0" y="0" width="40" height="40"></rect>
            </g>
        </g>
    </g>
</svg>