<?xml version="1.0" encoding="UTF-8"?>
<svg width="32px" height="32px" viewBox="0 0 32 32" version="1.1" xmlns="http://www.w3.org/2000/svg" xmlns:xlink="http://www.w3.org/1999/xlink">
    <!-- Generator: Sketch 49.3 (51167) - http://www.bohemiancoding.com/sketch -->
    <title>Icon/Chat</title>
    <desc>Created with Sketch.</desc>
    <defs>
        <path d="M26.6708821,8.54332553 L25.6217018,8.54332553 L25.6217018,3.22248244 C25.6217018,1.42388759 24.1978142,0 22.4741608,0 L3.2891491,0 C1.49055425,0 0.0666666667,1.42388759 0.0666666667,3.22248244 L0.0666666667,13.8641686 C0.0666666667,15.6627635 1.49055425,17.0866511 3.2891491,17.0866511 L6.43669009,17.0866511 L6.43669009,22.4074941 C6.43669009,24.206089 7.86057767,25.6299766 9.65917252,25.6299766 L17.0783763,25.6299766 L23.5233411,32 L23.5233411,25.6299766 L26.7458236,25.6299766 C28.469477,25.6299766 29.8933646,24.206089 29.8933646,22.4074941 L29.8933646,11.765808 C29.8933646,9.96721311 28.469477,8.54332553 26.6708821,8.54332553 Z M3.2891491,13.8641686 L3.2891491,3.22248244 L22.4741608,3.22248244 L22.4741608,8.54332553 L9.65917252,8.54332553 C7.86057767,8.54332553 6.43669009,9.96721311 6.43669009,11.765808 L6.43669009,13.8641686 L3.2891491,13.8641686 Z" id="path-1"></path>
    </defs>
    <g id="Icon/Chat" stroke="none" stroke-width="1" fill="none" fill-rule="evenodd">
        <g id="Functional/feedback-f" transform="translate(1.000000, 0.000000)">
            <mask id="mask-2" fill="white">
                <use xlink:href="#path-1"></use>
            </mask>
            <use id="Mask" fill="#FFFFFF" fill-rule="nonzero" xlink:href="#path-1"></use>
        </g>
    </g>
</svg>