<svg xmlns="http://www.w3.org/2000/svg" xmlns:xlink="http://www.w3.org/1999/xlink" width="32" height="32" viewBox="0 0 32 32">
    <defs>
        <path id="a" d="M7.082 27.964l.977-16.293H10.5v3.21a1.28 1.28 0 0 0-.637 1.117c0 .702.547 1.272 1.223 1.272.675 0 1.222-.57 1.222-1.272 0-.46-.235-.862-.586-1.085V11.67h8.556v3.194c-.396.21-.667.638-.667 1.133 0 .702.547 1.272 1.222 1.272.675 0 1.222-.57 1.222-1.272 0-.447-.221-.839-.555-1.066v-3.261h2.44l.978 16.293H7.082zm4.64-19.61c0-2.802 1.92-5.081 4.278-5.081 2.359 0 4.278 2.28 4.278 5.081v1.281h-8.556v-1.28zm14.056 1.281H21.5v-1.28C21.5 4.85 19.033 2 16 2s-5.5 2.85-5.5 6.354v1.281H6.222L5 30h22L25.778 9.635z"/>
    </defs>
    <g fill="none" fill-rule="evenodd">
        <mask id="b" fill="#fff">
            <use xlink:href="#a"/>
        </mask>
        <use fill="#b2b2b2" xlink:href="#a"/>
        <g fill="#b2b2b2" mask="url(#b)">
            <path d="M0 0h32v32H0z"/>
        </g>
    </g>
</svg>
