<?xml version="1.0" encoding="UTF-8"?>
<svg width="32px" height="32px" viewBox="0 0 32 32" version="1.1" xmlns="http://www.w3.org/2000/svg" xmlns:xlink="http://www.w3.org/1999/xlink">
    <!-- Generator: sketchtool 44.1 (41455) - http://www.bohemiancoding.com/sketch -->
    <title>077D90A5-CC06-4563-AEE6-2782B5BE91FD</title>
    <desc>Created with sketchtool.</desc>
    <defs>
        <path d="M7.08163167,27.9639973 L8.05940944,11.6710129 L10.500065,11.6710129 L10.500065,14.8805166 C10.1206872,15.0964602 9.86340944,15.5156222 9.86340944,15.9975186 C9.86340944,16.7003213 10.4104761,17.2700203 11.0856317,17.2700203 C11.7605428,17.2700203 12.3078539,16.7003213 12.3078539,15.9975186 C12.3078539,15.5380183 12.0729428,15.1364167 11.7222872,14.9128382 L11.7222872,11.6710129 L20.2778428,11.6710129 L20.2778428,14.8649921 C19.8820872,15.0754639 19.6108761,15.5031517 19.6108761,15.9975186 C19.6108761,16.7003213 20.1579428,17.2700203 20.8330983,17.2700203 C21.5080094,17.2700203 22.0553206,16.7003213 22.0553206,15.9975186 C22.0553206,15.551125 21.8339761,15.1591945 21.500065,14.932053 L21.500065,11.6710129 L23.9405983,11.6710129 L24.9183761,27.9639973 L7.08163167,27.9639973 Z M11.7222872,8.3544917 C11.7222872,5.55231573 13.6412983,3.27250169 16.000065,3.27250169 C18.3588317,3.27250169 20.2778428,5.55231573 20.2778428,8.3544917 L20.2778428,9.63501016 L11.7222872,9.63501016 L11.7222872,8.3544917 Z M25.7778428,9.63501016 L21.500065,9.63501016 L21.500065,8.3544917 C21.500065,4.85065829 19.032765,2 16.000065,2 C12.9672428,2 10.500065,4.85065829 10.500065,8.3544917 L10.500065,9.63501016 L6.22228722,9.63501016 L5.000065,30 L27.000065,30 L25.7778428,9.63501016 Z" id="path-1"></path>
    </defs>
    <g id="Symbols" stroke="none" stroke-width="1" fill="none" fill-rule="evenodd">
        <g id="Icon/Shopping">
            <mask id="mask-2" fill="white">
                <use xlink:href="#path-1"></use>
            </mask>
            <use id="Fill-1" fill="#666666" xlink:href="#path-1"></use>
            <g id="Color/Light-Grey" mask="url(#mask-2)" fill="#666666">
                <rect id="Rectangle-2" x="0" y="0" width="32" height="32"></rect>
            </g>
        </g>
    </g>
</svg>