<svg xmlns="http://www.w3.org/2000/svg" width="60" height="38"  viewBox="0 0 60 38">
    <path fill="#FFF" fill-rule="evenodd" d="M12.665 17.004c.583.203 1.165.38 1.748.532-.025.026-.038.026-.038 0l-1.634-.456-.057-.019c-.038-.012-.044-.031-.019-.057zm25.945-.062a155.431 155.431 0 0 0-.014.011l.014-.011zm-.014.011c.37-.312.733-.624 1.087-.937.684-.582 1.355-1.165 2.014-1.748a.366.366 0 0 0 .19-.152c.33-.278.646-.532.95-.76.456-.38.925-.734 1.406-1.064.076-.076.165-.139.266-.19l.722-.494c.152-.076.279-.152.38-.228l.076-.038.038-.038c.025 0 .038-.012.038-.038.05-.101.057-.177.019-.228a.326.326 0 0 0-.095-.095l-.038-.019a.468.468 0 0 0-.266.076l-1.406.722c-.532.254-1.064.532-1.596.836-.81.406-1.596.836-2.356 1.292l-.418.228c-.101.051-.215.127-.342.228a385.606 385.606 0 0 1 3.078-1.634l1.596-.836.988-.494.57-.266.152-.038a.161.161 0 0 1 0 .152c-.025.051-.044.076-.057.076h.019v.038a.845.845 0 0 0-.266.114 2.33 2.33 0 0 0-.418.228l-.57.38a38.744 38.744 0 0 0-2.28 1.748c-.355.304-.722.596-1.102.874-.71.608-1.425 1.216-2.147 1.824-.722.608-1.45 1.229-2.185 1.862l4.864 1.672c.127.102.14.317.038.646a.91.91 0 0 1-.209.4c-.089.088-.158.12-.209.094l-5.472-1.9c-.203.152-.38.304-.532.456l3.496 1.634c1.292-.025 2.717-.025 4.275 0 1.558.026 2.768.102 3.629.228.684.127.291.26-1.178.4-1.47.139-3.243.234-5.32.284.152.076.291.127.418.152l3.002 1.026.494.19h.038c.025 0 .05.013.076.038.025.026.019.095-.019.21-.038.113-.095.183-.171.208l-1.862-.57a27.498 27.498 0 0 0-1.9-.608l-1.786-.57h-.304l2.66.836c.228.076.456.14.684.19.887.304 1.875.634 2.964.988l1.824.57c.127.051.165.203.114.456h.152c.101.051.158.184.171.4.013.215-.019.449-.095.702a1.942 1.942 0 0 1-.285.608c-.114.152-.222.241-.323.266-.025 0-.05-.012-.076-.038l-.19-.076c-.279-.126-.557-.24-.836-.342-.38-.152-.76-.291-1.14-.418-.38-.126-.773-.24-1.178-.342a3.76 3.76 0 0 0-.57-.19c-.988-.278-1.989-.57-3.002-.874l-.266-.114a63.845 63.845 0 0 1-2.052-.646l.228.532.038.038c.76.254 1.52.52 2.28.798l2.28.798-4.522-1.444c1.343 2.812 2.685 5.65 4.028 8.512a451.03 451.03 0 0 1-4.256-8.588l-.38-.152.969 2.014c.317.659.633 1.311.95 1.957.317.646.633 1.305.95 1.976.317.672.64 1.337.969 1.995-.05 0-.076.013-.076.038a9.287 9.287 0 0 1-.494.228c.076.102.114.241.114.418a.976.976 0 0 1-.114.475.459.459 0 0 1-.342.247c-.253 0-.469-.063-.646-.19l-.418-.418-.456-.684c-.279-.456-.538-.95-.779-1.482a28.414 28.414 0 0 1-.665-1.596c.355.786.735 1.546 1.14 2.28a29.052 29.052 0 0 1-.988-2.204 1.474 1.474 0 0 0-.076-.19.249.249 0 0 0-.114-.114 63.9 63.9 0 0 0-1.558-2.09l2.394 5.89c.025.076-.063.159-.266.247-.203.089-.33.095-.38.02l-3.002-5.815c.025.102.05.317.076.646l.038.646c.127.634.203 1.267.228 1.9l.076.95v2.204c.025.203.038.418.038.646 0 .102-.038.19-.114.266a.264.264 0 0 1-.266.076.468.468 0 0 1-.38-.304c-.101-.304-.285-1.184-.551-2.64a83.66 83.66 0 0 1-.551-3.288l-.228-1.444-.342-3.23a2.06 2.06 0 0 1-.095-.38.526.526 0 0 0-.057-.209.31.31 0 0 1-.038-.17c-.05 0-.076.012-.076.037l-1.102 1.102-3.42 3.496-.874.874c-.456.456-.925.938-1.406 1.444-.785.76-1.558 1.52-2.318 2.28h-.01.01l.038-.038a881.432 881.432 0 0 1 8.284-8.626l-1.178.988c-.33.254-.671.532-1.026.836l-.494.418-.608.608c-.304.304-.62.608-.95.912-.203.178-.405.38-.608.608a.873.873 0 0 0-.304.304l-.646.57a1.72 1.72 0 0 1-.304.304c-.304.304-.62.608-.95.912l-.912.912a2.517 2.517 0 0 1-.304.323c-.101.089-.19.197-.266.323-.025.026-.038.045-.038.057 0 .013-.013.032-.038.057l-.038.038-.019.038a.221.221 0 0 1-.038.057l-.057.057v.038l-.095.095a.221.221 0 0 0-.057.133l-.076.038c0 .026-.006.045-.019.057a.221.221 0 0 0-.038.057.221.221 0 0 1-.038.057.221.221 0 0 0-.038.057.221.221 0 0 1-.038.057l-.057.057-.152.228-.076.076c0 .026-.006.045-.019.057l-.095.095v.038c-.025.026-.038.045-.038.057 0 .013-.006.026-.019.038l-.038.038c-.013.013-.025.02-.038.02-.013 0-.019.012-.019.037v.038c-.025 0-.038.007-.038.02 0 .012-.006.018-.019.018s-.019.007-.019.02v.018l-.057.057c-.013.013-.019.026-.019.038 0 .013-.013.02-.038.02l-.038.037h-.019c-.013 0-.025.007-.038.02-.013.012-.025.018-.038.018-.013 0-.025.007-.038.02-.013.012-.025.018-.038.018h-.228c-.013 0-.025-.006-.038-.019l-.019-.019h-.038c0-.025-.006-.038-.019-.038h-.019a.361.361 0 0 1-.152-.304c0-.126.05-.24.152-.342l.076-.114c.203-.152.399-.329.589-.532.19-.202.399-.405.627-.608l.304-.342c.05-.025.076-.05.076-.076.253-.354.494-.696.722-1.026l-.798.608-2.318 1.9h-.038c0 .026-.013.038-.038.038-.076 0-.152-.044-.228-.133-.076-.088-.101-.17-.076-.247-.127.051-.253-.006-.38-.17-.127-.165-.152-.286-.076-.362l.76-.608-.114-.152a.909.909 0 0 1-.019-.323c.013-.114.044-.196.095-.247.025 0 .05-.019.076-.057.025-.038.05-.057.076-.057.279-.304.583-.595.912-.874-.025 0-.038-.012-.038-.038-.101.026-.24-.05-.418-.228-.177-.253-.228-.43-.152-.532l.076-.076c.177-.126.342-.266.494-.418l-.114-.114c.43-.38.836-.76 1.216-1.14l-.114-.152.988-.988a537.24 537.24 0 0 0 1.56-1.633c.006.01-.013.024-.04.037l.342-.418c.228-.278.469-.544.722-.798a1.66 1.66 0 0 0 .342-.38c.456-.532.937-1.051 1.444-1.558l-.228-.038c0-.025-.019-.038-.057-.038-.038 0-.07.026-.095.076l-6.232 5.016-.114.076c-.05.026-.076.064-.076.114a1.998 1.998 0 0 0-.304.494c-.101.076-.253.045-.456-.095-.203-.139-.266-.26-.19-.36a.507.507 0 0 1 .19-.229l.19-.114a.598.598 0 0 1 .228-.152c0-.05.025-.088.076-.114l.722-.912a36.3 36.3 0 0 1 2.185-2.223c.747-.696 1.514-1.4 2.299-2.109a82.829 82.829 0 0 0-1.862-.646l-4.18-1.444a1.604 1.604 0 0 0-.494-.152c-.304-.101-.62-.19-.95-.266l-.038-.038.798.228-1.558-.57a.675.675 0 0 0-.304-.076 91.688 91.688 0 0 0-3.116-.874c-.025-.025-.05-.038-.076-.038h-.076c-.127-.076-.165-.221-.114-.437.05-.215.165-.31.342-.285l.076.076 2.014.684.836.266c.228.102.469.19.722.266l2.28.684c-.025-.025-.063-.038-.114-.038a4.323 4.323 0 0 0-.798-.304l-1.596-.57-.038-.025c.596.199 1.217.41 1.862.633.304.127.608.228.912.304.633.228 1.254.444 1.862.646l.19-.532a773.198 773.198 0 0 1-6.042-1.786l-.836-.228v-.076l.114-.266c.025-.126.063-.253.114-.38l-.798-.228a.468.468 0 0 0-.266-.076 8.788 8.788 0 0 1-1.14-.152h-.076c-.152-.076-.203-.24-.152-.494.05-.253.165-.367.342-.342l.152.038c.279.076.545.165.798.266l.152.038c.076 0 .14.013.19.038.101 0 .228.013.38.038l.342.038c.279 0 .532.026.76.076.988.127 1.887.33 2.698.608l1.254.38 3.762 1.216c-1.19-.506-2.508-1.064-3.952-1.672l-2.394-1.026.152-.608.191.024-.457-.176-.418-.228a.655.655 0 0 0-.19-.095.17.17 0 0 1-.114-.095l-.228-.228c-.05-.05-.076-.088-.076-.114a1.084 1.084 0 0 1-.209-.418.46.46 0 0 1 .095-.418.528.528 0 0 1 .38-.209c.152-.012.298-.006.437.02.14.025.272.063.399.113l.342.114c.228.076.456.14.684.19 0-.076.013-.164.038-.266.076-.177.165-.253.266-.228l1.102.38c-.025-.101.013-.221.114-.36.101-.14.279-.159.532-.058h.076l2.394 1.026c1.343.583 2.191.963 2.546 1.14l1.558.76c.076.051.146.089.209.114a.558.558 0 0 0 .209.038l-.038-.114a76.697 76.697 0 0 1-1.444-3.306c.338.72.675 1.45 1.013 2.19-.29-.716-.602-1.42-.937-2.114l-1.558-3.61-.836-1.976-.038-.19c0-.101.063-.177.19-.228.127-.05.228-.038.304.038l.114.114c.101.228.228.456.38.684l-.494-1.292-.076-.114v-.038a1.096 1.096 0 0 1-.076-.55c.025-.165.089-.273.19-.324.203-.076.38.013.532.266a1.098 1.098 0 0 1-.019-.532c.038-.152.108-.253.209-.304.203-.076.393.013.57.266l-.038-.19a.37.37 0 0 1-.076-.19l-.304-.722-.228-.646a1.12 1.12 0 0 1 .038-.494.52.52 0 0 1 .304-.36c.152-.064.31-.045.475.056.165.102.298.254.399.456l1.178 2.774.114-.038v.038l1.824 3.8-.038-.114a168.698 168.698 0 0 0-1.406-3.116 105.344 105.344 0 0 1 1.75 3.679c-.187-.474-.39-.94-.61-1.399l-2.432-5.662h-.038c.203-.076.393-.164.57-.266.33.659.646 1.305.95 1.938a67.17 67.17 0 0 0-.874-1.976l.038.038c.659 1.444 1.33 2.901 2.014 4.37.101.178.19.38.266.608a9.979 9.979 0 0 0-.152-1.254 65.322 65.322 0 0 0-.266-2.204 2.422 2.422 0 0 1-.038-.95c.025-.126.07-.253.133-.38a.73.73 0 0 1 .285-.304c.152-.126.367-.177.646-.152.33.102.57.298.722.59.152.29.266.588.342.892a25.1 25.1 0 0 1 .38 1.786l.304 1.862.038-.38v-.19c-.05-.456-.089-.975-.114-1.558l-.038-.988c0-.228.057-.418.171-.57.114-.152.247-.221.399-.209.152.013.279.095.38.247.101.152.152.342.152.57l-.38 3.534v.304c.05 1.14.114 2.28.19 3.42l.038 1.254a10.101 10.101 0 0 1 .076 1.216l.038.152a.578.578 0 0 1 .152.304v-.57l-.038-.038v-.722c0-.025-.013-.038-.038-.038v-.722l-.038-.076v-.722l-.038-.038v-.76h-.038v-.209c0-.012.006-.025.019-.038a.221.221 0 0 0 .038-.057l.019-.038.019-.019a.221.221 0 0 1 .057-.038l.114-.057h.038l.076-.038h.076c.127 0 .234.032.323.095.089.064.133.133.133.21l-.076 2.241h.152c.177 0 .279.038.304.114v1.52h.038l2.242-2.014a14.31 14.31 0 0 0 1.178-.988l1.14-.988-.646.456 1.558-1.368c.152-.152.33-.304.532-.456.228-.228.481-.456.76-.684l.228-.228a25.5 25.5 0 0 0 .836-.874l.114-.114c.203-.177.393-.19.57-.038.101.152.076.317-.076.494v.038a.678.678 0 0 0-.19.19l.228-.19c.152-.076.285-.133.399-.17a.669.669 0 0 1 .304-.039.59.59 0 0 1 .247.095l.076.038a.564.564 0 0 1 .152.266v.152c0 .152-.05.304-.152.456a.43.43 0 0 1-.152.152 8.767 8.767 0 0 1-.456.494 125.161 125.161 0 0 1-3.154 3.192l-2.85 2.85a1.285 1.285 0 0 1-.342.304l-.304.342a3.297 3.297 0 0 0-.342.304c-.405.406-.836.824-1.292 1.254l1.786-1.596 2.394-2.052c0-.025.025-.05.076-.076a103.67 103.67 0 0 1 3.496-3.04c.38-.354.785-.696 1.216-1.026l.152-.114a.966.966 0 0 1 .494-.19.337.337 0 0 1 .152-.038.34.34 0 0 1 .171.057.334.334 0 0 1 .133.133l.114.19v.266c-.05.127-.114.254-.19.38l-.228.304a7.155 7.155 0 0 1-.494.59c-.177.19-.38.373-.608.55.228-.152.469-.291.722-.418.405-.177.836-.342 1.292-.494a3 3 0 0 0-.456.114c.633-.253 1.33-.443 2.09-.57.101 0 .19.013.266.038a.469.469 0 0 1 .342.228c.05.051.089.114.114.19a.717.717 0 0 1 .038.228l-.038.228a.477.477 0 0 1-.114.19l-.076.076a.754.754 0 0 1-.266.228 6.224 6.224 0 0 0-.418.228c.076.051.146.12.209.21a.32.32 0 0 1 .038.303.408.408 0 0 1-.209.247l-.304.152a6.84 6.84 0 0 0-.988.684c.152-.076.291-.164.418-.266.228-.101.456-.228.684-.38.02 0 .04-.003.06-.008-.311.17-.623.363-.934.578a1.579 1.579 0 0 1-.304.228l-.912.684c-.583.456-1.165.925-1.748 1.406-.355.279-.71.57-1.064.874-.025.026-.05.038-.076.038v.038l-.57.456-1.14.988c-.456.38-.925.786-1.406 1.216l-.304.228.038-.038a.967.967 0 0 1 .228-.228l.798-.722c.355-.304.71-.633 1.064-.988-.101.076-.215.165-.342.266.887-.76 1.76-1.507 2.622-2.242a150.214 150.214 0 0 0-3.011 2.446l-.014.011zm7.075-5.24a9.456 9.456 0 0 1 .065-.033.204.204 0 0 1-.065.034zm.065-.033a.295.295 0 0 0 .065-.072l.114-.038a.369.369 0 0 0 .152-.228l.038-.114a.988.988 0 0 0-.038-.304.342.342 0 0 0-.085-.135c.085.069.132.166.142.287a.537.537 0 0 1-.095.38.689.689 0 0 1-.293.224zm.249-.895a.474.474 0 0 0-.07-.05.442.442 0 0 1 .067.054l.003-.004zm-29.71 6.536l-.038-.013c-.05-.025-.063-.038-.038-.038l.076.051zm7.297 7.284l.037-.039c0 .012-.006.024-.017.037l-.02.002zm-1.568 8.093h-.01.01zM20.243 19.15a.26.26 0 0 0-.168-.056l.168.056zm.136.046l.38.126h.038l-.19-.076-.228-.05zm10.488-8.234l-.038.114c.025 0 .038.026.038.076.101.178.19.355.266.532l-.038-.342a6.722 6.722 0 0 1-.152-1.064 2.135 2.135 0 0 0-.038.418.842.842 0 0 0-.038.266zm-.114.874v.152c.152.33.304.634.456.912l-.038-.456-.038-.114-.342-.722a1.04 1.04 0 0 0-.038.228zm-.152-3.648a.473.473 0 0 0 0-.266l-.228 1.938-.038.152.038.038.076.19.19-1.748a.777.777 0 0 0 0-.342l-.228 1.558.114-.874c.025-.228.05-.443.076-.646zm-1.14.988c.228.507.469 1.026.722 1.558 0-.101.013-.202.038-.304a51.373 51.373 0 0 0-.836-1.672c.025.127.05.266.076.418zm.646 1.976c-.177-.405-.367-.81-.57-1.216.025.051.038.114.038.19l.038.038.494 1.14v-.152zm-.912-2.014v.114l.228.456-.038-.114a3.482 3.482 0 0 0-.19-.456zm.076-.646l-.228-.456c.025.102.038.228.038.38l.228.456c0-.101-.013-.228-.038-.38zm-.304-1.102l.228.456a1.25 1.25 0 0 0-.038-.304l-.228-.494c.025.102.038.216.038.342zm.304.38c0 .051.013.102.038.152v.114l.038.114.304.57c.05.076.082.133.095.171.013.038.019.045.019.02a22.14 22.14 0 0 0-.494-1.14zm.912 3.534v.152l.076.228.038-.152a.96.96 0 0 0-.114-.228zm.076-.38c.05.051.076.102.076.152a1.25 1.25 0 0 0 .038-.304 1.859 1.859 0 0 0-.114-.19v.152l-.038.114c.025.026.038.051.038.076zm-4.674-9.31c.304.659.595 1.33.874 2.014a29.68 29.68 0 0 0-.76-1.9l-.114-.228h-.019c-.013 0-.013.013 0 .038.013.026.019.051.019.076zm.95 1.178l1.976 4.37a.842.842 0 0 0-.038-.266V6.82c0-.05-.013-.076-.038-.076a3.376 3.376 0 0 0-.266-.608A66.614 66.614 0 0 1 26.877 3.4l-.912-1.976c-.025-.05-.044-.076-.057-.076-.013 0-.019.013-.019.038l.038.038.266.646c.127.254.24.494.342.722zm2.09 1.032a1.852 1.852 0 0 1-.001.005v-.005zm-.001.005a.347.347 0 0 0-.037-.125c.05.532.114 1.077.19 1.634.025.507.076 1.026.152 1.558v.076l.228.532-.251-2.48c.043.298.088.592.137.884.05.507.114 1.026.19 1.558 0 .076.013.152.038.228l.038.114c.33.71.659 1.394.988 2.052l.228-2.09a.337.337 0 0 0 .038-.152l-.266-1.672-.304-1.634a15.532 15.532 0 0 0-.38-1.558l-.114-.38a1.014 1.014 0 0 0-.133-.342 13.13 13.13 0 0 0-.209-.323.35.35 0 0 0-.304-.17c-.127 0-.228.069-.304.208a.9.9 0 0 0-.114.437c.076.456.127.9.152 1.33.023.093.036.196.038.31l-.001.005zm.282 1.195a41.981 41.981 0 0 1-.108-.807.96.96 0 0 0 .055.285l.053.522zm-.108-.807a43.14 43.14 0 0 1-.021-.17c0 .056.004.113.01.17h.01zm-1.61 3.574c.632 1.614 1.288 3.229 1.969 4.843 0-.076-.013-.126-.038-.152v-.076l-.228-.532a440.313 440.313 0 0 1-1.634-3.914.585.585 0 0 0-.068-.17zm.867 12.9c-.025.025-.038.05-.038.075l.114.038.266-.266c-.076 0-.127-.012-.152-.038a.678.678 0 0 1-.19.19zm-.152 0l.228-.229-.228.228h-.019.019zm-.76-12.997c0-.025-.006-.038-.019-.038.013 0 .019.013.019.038zm-.038-.076v.038-.038zm0-.038h-.019.019zm-.028-.019c.006 0 .015-.006.028-.019h-.019l-.01.02zm-.01-.057v-.038.038zm.418 3.876a23.76 23.76 0 0 0-.646-1.406c.228.456.43.938.608 1.444l.304.722.342.684c-.177-.506-.38-.988-.608-1.444zM24.9 7.65l1.179 2.894c.025.102.076.21.152.323.076.114.14.235.19.361.405.71.798 1.394 1.178 2.052l-.304-.722a5.277 5.277 0 0 0-.342-.76l-.722-1.444a39.22 39.22 0 0 0-.684-1.444L24.9 7.65zm-.303-5.77h-.038c.05.254.12.494.209.722.089.228.196.456.323.684l.114.342.456 1.026a.477.477 0 0 1 .19-.114 86.62 86.62 0 0 1-1.178-2.698h-.038l.456 1.254-.076-.152c-.152-.354-.291-.709-.418-1.064zm-.19.076c.38.836.747 1.685 1.102 2.546 0 .051.006.095.019.133.013.038.025.051.038.038l.019-.019v-.038c0-.05-.025-.088-.076-.114l-1.064-2.584-.038.038zm-.646 5.206l.532 1.178-.228-.608-.266-.532-.038-.038zm.342.608a278.316 278.316 0 0 0 3.268 7.334c.025 0 .05.013.076.038v-.038l-.228-.418a199.905 199.905 0 0 1-2.28-5.358.598.598 0 0 0-.152-.228l-.684-1.33zm.608 8.132a1.182 1.182 0 0 0-.418-.152 36.484 36.484 0 0 0-3.078-.722l.304.114c.279.127.532.266.76.418l.076.038c.279.152.57.292.874.418.127.051.24.064.342.038.507.279 1.026.532 1.558.76l1.52.684.646-.418-2.242-1.026a4.53 4.53 0 0 0-.342-.152zm2.314 2.218a2.128 2.128 0 0 0-.376-.166h-.076a.59.59 0 0 0 .247.095c.073.01.142.034.207.07l-.002.001zm-4.86-4.004h-.152l.608.304a.678.678 0 0 0-.19-.19c0-.025-.013-.044-.038-.057a.737.737 0 0 0-.095-.038.421.421 0 0 0-.133-.019zm-1.938-.266l-.532-.266-.532-.152c.583.228 1.077.431 1.482.608l.646.304-1.862-.114.076.038c.05 0 .101.013.152.038.937.152 1.824.317 2.66.494l-1.558-.722-.532-.228zm-2.014-1.52l-.494-.152c.05.051.114.089.19.114l.266.114.076.038a.6.6 0 0 0 .209.095c.063.013.133.02.209.02l.19.075.57.152c.076.026.14.038.19.038a47.74 47.74 0 0 1-1.406-.494zm3.002 3.496l-.076-.038c.912.355 1.824.722 2.736 1.102l-1.824-.836-1.634-.684-.076-.038-.76-.532h-.266l-.304-.038-.38-.152-.646-.152a.625.625 0 0 0-.19-.038l3.876 1.672a4.248 4.248 0 0 0-.456-.266zm1.102 2.926l.38.152c.127.051.253.076.38.076l-.57-.152a1.474 1.474 0 0 0-.19-.076zm.418.152l2.85 1.026.152-.152c-.988-.304-1.989-.595-3.002-.874zm.988 1.444l.988.342.076-.038-1.064-.304zm1.71.836a1.692 1.692 0 0 1-.418-.152.678.678 0 0 0-.19.19l-.608.57c-.228.254-.481.507-.76.76l-.38.38c-.405.38-.798.76-1.178 1.14 1.19-.962 2.369-1.925 3.534-2.888zm.228-.152l.114-.114-.494-.114c-.025 0-.05.026-.076.076.152.026.304.076.456.152zm-.304-2.47c.304.127.633.228.988.304.101.051.19.076.266.076.025.026.05.026.076 0a426.323 426.323 0 0 0-5.32-1.634c1.317.406 2.647.824 3.99 1.254zm.684 1.52l.57.19.19-.19-.57-.152-.152.114-.038.038zm.266 1.14c.076.051.152.076.228.076l.114-.114-.19-.076a.595.595 0 0 0-.152.114zm-6.954 10.754a1.132 1.132 0 0 0-.114.152l2.546-2.052c.304-.228.583-.456.836-.684l-.19.114c.43-.354.861-.722 1.292-1.102.05 0 .082-.019.095-.057.013-.038.032-.057.057-.057l.304-.456-3.724 3.23c-.355.304-.722.608-1.102.912zm.57-.304a.43.43 0 0 0 .152-.152c-.355.304-.722.608-1.102.912l-.076.038a.44.44 0 0 0-.095.057c-.013.013-.019.032-.019.057v.076c0-.025.013-.038.038-.038.355-.329.722-.646 1.102-.95zm2.622-1.976l.304-.266c-.203.152-.418.31-.646.475a3.62 3.62 0 0 0-.608.551l-.608.494a3.02 3.02 0 0 1-.456.38.228.228 0 0 0-.152.152l1.254-1.026.912-.76zm.113-.198l-.122.099a.089.089 0 0 1 .047-.015c.024-.029.05-.057.075-.084zm.326-.263l.055-.033.456-.38-.511.413zm.359.613c.304-.278.595-.557.874-.836-.152.152-.33.292-.532.418-.05.026-.076.051-.076.076l-.076.076c-.05.102-.114.19-.19.266zm.646-5.092c.81-.76 1.621-1.494 2.432-2.204.025 0 .05-.012.076-.038.025-.025.038-.05.038-.076l.646-.684a.337.337 0 0 1-.152-.038l-.57.608c.152-.228.33-.43.532-.608l-.038-.038-.114.114a3.767 3.767 0 0 0-.266.304 1.367 1.367 0 0 0-.38.38c-.304.304-.62.634-.95.988-.279.254-.532.507-.76.76a.678.678 0 0 1-.19.19l-.38.418.076-.076zm3.496-4.446v-.038l-.266.228h.076l.19-.19zm.038 1.102c-.076 0-.127-.012-.152-.038a.43.43 0 0 1-.152.152l.019.02a.471.471 0 0 0 .133.056l.114-.114c.025-.025.038-.05.038-.076zm-.266-.038l-.114.114v.038a.43.43 0 0 0 .152-.152h-.038zm-1.368 5.244a.892.892 0 0 0-.304.19l-.152.114c-.05.076-.076.127-.076.152l.38-.342c.076-.05.127-.088.152-.114zm1.596-1.064a.43.43 0 0 0 .152-.152c-.405.304-.836.608-1.292.912a1.19 1.19 0 0 0-.304.228l-.798.722a.574.574 0 0 0-.19.228c.81-.658 1.621-1.304 2.432-1.938zm.304-6.232v-.038a4.81 4.81 0 0 0-.646-.19h-.038l.684.228zm0-1.406l.076-.038.076-.076-.19-.38-.57.266c.152.076.33.14.532.19l.076.038zm.88 6.168l-.12.102a.547.547 0 0 0 .12-.102zm0 0a.263.263 0 0 0 .032-.05c-.228.178-.443.355-.646.532a1.51 1.51 0 0 0-.228.19 114.24 114.24 0 0 0 2.584-1.9.409.409 0 0 1-.228-.076l-1.515 1.304zm2.198-1.608c.025 0 .025-.012 0-.038l-.19-.038a1.579 1.579 0 0 1-.304.228l.266.076.228-.228zm-.152-9.804l.532 1.292v-.418l-.57-1.178v.228c0 .026.013.051.038.076zm2.052 12.236l-.646-.836.646 1.254v-.418zm-.646-2.09h-.076l.152.228a.409.409 0 0 0-.076-.228zm-.418-9.5v.076l.19.418v-.114l-.19-.38zm.076.836l.076.114c.025 0 .044-.019.057-.057.013-.038.006-.057-.019-.057v-.228l-.038-.114-.152-.266c0 .102.013.216.038.342v.152c.025.026.038.064.038.114zm.215 9.858a.363.363 0 0 1-.025-.13.221.221 0 0 0-.057-.133c-.013-.012-.032-.019-.057-.019.058.078.11.171.153.279l-.014.003zm.393 2.264l.418.798v-.456l-.114-.19a15.351 15.351 0 0 0-.646-1.292c0 .127.025.254.076.38.127.38.215.634.266.76zm5.472 5.472c-.05-.025-.076-.05-.076-.076.152.279.31.551.475.817.165.266.361.5.589.703.025.051.038.064.038.038a2.346 2.346 0 0 0-.266-.418l-.57-.76a1.997 1.997 0 0 1-.19-.304zm-2.622-10.26l.95.266.038-.038-.988-.228zm.494 1.558a.486.486 0 0 0-.19-.304.858.858 0 0 0-.38-.152l.19.342c.127.026.253.064.38.114zm.038-2.09l-.874-.38c-.025-.05-.063-.076-.114-.076l.076.19.912.266zm-.608-1.596l.228-.228-1.292-.456-.152.114c.101.152.177.317.228.494l.722.304a2.48 2.48 0 0 1 .266-.228zm-.608 1.216l-.114-.228a.228.228 0 0 0-.152.152c.101 0 .19.026.266.076zm-.38-.342l-.228-.114.114.228.057-.019c.038-.012.057-.044.057-.095zm1.634-1.444l.038-.038-1.292-.494c-.025.026-.05.038-.076.038-.025 0-.025.013 0 .038.456.152.9.304 1.33.456zm1.672.456l3.61 1.292.076.038h.114c0-.025-.019-.044-.057-.057a.421.421 0 0 0-.133-.019l-1.786-.646a76.041 76.041 0 0 0-1.824-.608zm3.306 1.254l-4.712-1.672-.038.038 3.306 1.14c.203.076.52.19.95.342l.988.342c-.025-.025-.05-.038-.076-.038l-.304-.114a.292.292 0 0 1-.114-.038zm2.964-8.322c-1.875.963-3.711 1.951-5.51 2.964l-.266.19c-.43.33-.836.659-1.216.988l-.228.228a3.916 3.916 0 0 0-.494.418c-.228.203-.469.406-.722.608l-.19.19 1.292.494c.025-.025.05-.038.076-.038a25.036 25.036 0 0 1 1.748-1.52 134.82 134.82 0 0 1 3.61-3.04 37.125 37.125 0 0 1 1.672-1.292 1.51 1.51 0 0 1 .228-.19zm.646-.874v-.038l-.988.456a9.287 9.287 0 0 1-.494.228l-.456.228c-.608.33-1.178.672-1.71 1.026l-.076.076a49.675 49.675 0 0 1 1.596-.874l.266-.152c.633-.304 1.254-.62 1.862-.95zm1.254-2.052c-.735.178-1.419.393-2.052.646l1.102-.38.912-.228c.152-.05.33-.063.532-.038l.152.076c.05.051.089.076.114.076a.61.61 0 0 1 .171.4.483.483 0 0 1-.133.398c-.203.152-.418.304-.646.456a.258.258 0 0 0-.19.076h.114l.114-.038c0-.025.019-.044.057-.057l.057-.019c.152-.101.291-.196.418-.285a.701.701 0 0 0 .266-.399v-.228a.258.258 0 0 0-.076-.19 2.073 2.073 0 0 1-.152-.17c-.05-.064-.089-.096-.114-.096a.292.292 0 0 1-.114-.038h-.076a.608.608 0 0 0-.304 0c-.076 0-.127.013-.152.038zm-3.154 2.014a2.48 2.48 0 0 1-.266.228l-.342.304c.279-.152.57-.304.874-.456l.456-.228c.253-.126.494-.228.722-.304l.418-.19.418-.152.76-.38c.127-.076.24-.139.342-.19.025-.025.025-.038 0-.038s-.082.007-.171.02a.941.941 0 0 0-.285.094c-.43.127-.874.266-1.33.418a4.323 4.323 0 0 0-.798.304 11.3 11.3 0 0 0-.76.418c.05.026.07.045.057.057l-.095.095zm-8.208 5.13a7.786 7.786 0 0 0-.836.722l-.076.038v.038l.152.038 1.862-1.558c.38-.354.785-.709 1.216-1.064l.608-.532c.405-.329.817-.677 1.235-1.045.418-.367.817-.715 1.197-1.045l.684-.57.038-.038c.38-.304.76-.633 1.14-.988.101-.076.203-.164.304-.266a5.087 5.087 0 0 0 1.368-1.482l-.684.494c-.633.532-1.254 1.064-1.862 1.596l-3.61 3.23-.874.836-.342.266-1.216 1.064a3.767 3.767 0 0 1-.304.266zm-.418 2.736a.859.859 0 0 1-.006-.01l.006.01zm1.368-4.636l-1.9 1.824v.038c-.025 0-.032.007-.019.02.013.012.025.012.038 0l1.881-1.882zm-2.242-.494v.38a1.66 1.66 0 0 0 .342-.38l1.026-1.102 1.406-1.482c-.279.279-.57.532-.874.76a.366.366 0 0 1-.19.152 1.285 1.285 0 0 1-.342.304c-.33.33-.671.646-1.026.95l-.266.228c-.05.026-.082.051-.095.076-.013.026-.006.064.019.114zm0 1.672c.025.076.05.127.076.152.025.026.038.026.038 0l.494-.494a550.951 550.951 0 0 1 3.876-3.838l.038-.076a.43.43 0 0 1 .152-.152l.798-.798C39.557 9.38 40.62 8.29 41.659 7.2c-.177.152-.38.304-.608.456L39.645 8.91a2.854 2.854 0 0 0-.304.266l-1.634 1.558c-.152.178-.33.355-.532.532-.355.33-.71.684-1.064 1.064l-.152.152-.874.95a16.02 16.02 0 0 0-.646.684l-1.292 1.406a.43.43 0 0 0-.152.152zm.266 7.6c.025.102.038.216.038.342l.304.114-.342-.456zm1.635 6.214a125.081 125.081 0 0 0-1.559-3.782l.038.798.798 1.558c.127.279.247.539.361.78.105.22.225.436.362.646zm.721-1.806l-.456-1.672-1.406-2.014-.456-.19v.38l.228.57c.025.076.063.14.114.19.507.684.988 1.368 1.444 2.052l.532.684zm-.152-4.484l.418.114c-.025-.05-.063-.076-.114-.076l-.304-.076v.038zm2.128 6.992l-1.71-2.888.456 1.254.076.152.076.076c.355.456.722.925 1.102 1.406zm-1.026-5.434l-.266-.532-.38-.114c.101.178.19.355.266.532.152.026.279.064.38.114zm-.45-1.404c.007.024.025.036.051.036h.057c.177.076.342.127.494.152l4.978 1.406 1.862.494c.785.228 1.558.444 2.318.646l.19.038.076-.19v-.19h-.114a.254.254 0 0 1-.169.076c.057.002.093.02.093.057 0 .038-.013.07-.038.095a3.76 3.76 0 0 0-.57-.19.675.675 0 0 0-.304-.076c-.304-.076-.62-.164-.95-.266l-.57-.152c-.836-.228-1.66-.443-2.47-.646l-2.508-.646-2.427-.644zm9.684 2.43c0 .026.006.038.019.038h.019l-.038-.038zm-.772-.213c.156.052.312.11.468.175.05 0 .089.013.114.038h.19l-.772-.213zm-.344-.103a.502.502 0 0 0-.138-.064l-3.344-1.026c.583.203 1.178.393 1.786.57a38.45 38.45 0 0 0 1.596.494c.076.051.152.076.228.076l-.228-.076.1.026zm-6.37-1.926l-1.482-.456-.988-.266.114.228c.025 0 .038.026.038.076l7.562 2.09-5.016-1.596a.409.409 0 0 0-.228-.076zm1.102-1.634l3.8-.152c1.317-.025 1.875-.063 1.672-.114-.405-.025-1.178-.025-2.318 0l-3.192.076c.025.051.038.114.038.19z"/>
</svg>
